# xmcd
#
# Track frame offsets:
#	150
#	10934
#	26358
#	38060
#	45880
#	56080
#	72241
#	82052
#	92474
#	108650
#
# Disc length: 1650 seconds
#
# Revision: 1
# Processed by: cddbd v1.5.2PL0 Copyright (c) Steve Scherf et al.
# Submitted via: audiograbber 1.83.01
#
DISCID=7406700a
DTITLE=FH-7804  Elvis Presley - FH-7804 Christmas
DYEAR=1900
DGENRE=Country Christmas
TTITLE0=Elvis Presley - Blue Christmas
TTITLE1=?????????????? - Rudolph The Red-Nosed Reindeer
TTITLE2=Jimmy Boyd - I Saw Mommy
TTITLE3=Gene Autry - Frosty The Snowman
TTITLE4=?????? - Here Comes Santa Claus
TTITLE5=Nat King Cole - The Christmas Song
TTITLE6=Brenda lee - Rockin Around The ChristmasTree
TTITLE7=Bobby Helms - Jingle Bell Rock
TTITLE8=Elmo and Patsy - Grandma Got Run Over By A Reomdeer
TTITLE9=Bing Crosby - White Christmas
EXTD=
EXTT0=
EXTT1=
EXTT2=
EXTT3=
EXTT4=
EXTT5=
EXTT6=
EXTT7=
EXTT8=
EXTT9=
PLAYORDER=
